# Blender v2.79 (sub 0) OBJ File: ''
# www.blender.org
mtllib Chair.mtl
o Chair_mesh
v -0.127018 0.278607 0.115854
v -0.127018 0.241015 0.115854
v 0.119370 0.241015 0.115854
v 0.119370 0.278607 0.115854
v 0.103139 0.297915 -0.108847
v -0.105854 0.297915 -0.108847
v -0.140381 0.297915 0.129295
v 0.140381 0.297915 0.129295
v -0.096902 0.241016 -0.100357
v -0.096905 0.278607 -0.100322
v 0.094167 0.278607 -0.100357
v 0.094167 0.241016 -0.100357
v -0.136330 0.279255 0.126820
v 0.136330 0.279255 0.126820
v 0.103139 0.279255 -0.111323
v -0.105854 0.279255 -0.111323
v 0.107025 0.389991 -0.105130
v 0.106350 0.393003 -0.114655
v -0.099092 0.393003 -0.114655
v -0.099721 0.389991 -0.105130
v -0.099721 0.360852 -0.105130
v -0.099092 0.360852 -0.114655
v 0.106350 0.360852 -0.114655
v 0.107025 0.360852 -0.105130
v 0.107025 0.456671 -0.105130
v 0.106350 0.459683 -0.114655
v -0.099092 0.459683 -0.114655
v -0.099721 0.456671 -0.105130
v -0.099721 0.427533 -0.105130
v -0.099092 0.427533 -0.114655
v 0.106350 0.427533 -0.114655
v 0.107025 0.427533 -0.105130
v 0.095801 0.091832 0.103103
v 0.106398 0.086912 0.103103
v 0.091556 0.086912 -0.115191
v 0.082437 0.091832 -0.115191
v 0.082437 0.071738 -0.115191
v 0.091556 0.071738 -0.115191
v 0.106398 0.071738 0.103103
v 0.095801 0.071738 0.103103
v -0.127900 -0.000000 0.094402
v -0.090297 -0.000000 0.090898
v -0.092010 -0.000000 0.123727
v -0.130327 -0.000000 0.120368
v -0.127900 0.288970 0.094402
v -0.090297 0.288970 0.090898
v -0.092010 0.288970 0.123727
v -0.130327 0.288970 0.120368
v 0.095388 -0.000000 0.123727
v 0.093612 -0.000000 0.090898
v 0.127603 -0.000000 0.094402
v 0.130024 -0.000000 0.120368
v 0.095388 0.288970 0.123727
v 0.093612 0.288970 0.090898
v 0.127603 0.288970 0.094402
v 0.130024 0.288970 0.120368
v 0.107025 0.523352 -0.105130
v 0.106350 0.526364 -0.114655
v -0.099092 0.526364 -0.114655
v -0.099721 0.523352 -0.105130
v -0.099721 0.494213 -0.105130
v -0.099092 0.494213 -0.114655
v 0.106350 0.494213 -0.114655
v 0.107025 0.494213 -0.105130
v 0.107025 0.599265 -0.105130
v 0.106350 0.602277 -0.114655
v -0.099092 0.602277 -0.114655
v -0.099721 0.599265 -0.105130
v -0.099721 0.570126 -0.105130
v -0.099092 0.570126 -0.114655
v 0.106350 0.570126 -0.114655
v 0.107025 0.570126 -0.105130
v -0.109975 0.000000 -0.123092
v -0.077642 0.000000 -0.126820
v -0.079355 0.000000 -0.093992
v -0.112402 0.000000 -0.098763
v -0.109975 0.643401 -0.123092
v -0.077642 0.643401 -0.126820
v -0.079355 0.643401 -0.093991
v -0.112402 0.643401 -0.098763
v 0.112140 0.000000 -0.098763
v 0.082269 0.000000 -0.093992
v 0.080493 0.000000 -0.126820
v 0.109720 0.000000 -0.123092
v 0.112140 0.643401 -0.098763
v 0.082269 0.643401 -0.093991
v 0.080493 0.643401 -0.126820
v 0.109720 0.643401 -0.123092
v -0.115252 0.086912 0.101583
v -0.104664 0.091832 0.101583
v -0.090143 0.091832 -0.115191
v -0.099261 0.086912 -0.115191
v -0.099261 0.071738 -0.115191
v -0.090143 0.071738 -0.115191
v -0.104664 0.071738 0.101583
v -0.115252 0.071738 0.101583
vt 0.844339 0.654957
vt 0.844562 0.682297
vt 0.665369 0.683759
vt 0.665146 0.656420
vt 0.675361 0.461566
vt 0.827356 0.460326
vt 0.850936 0.633342
vt 0.652635 0.634960
vt 0.820442 0.411454
vt 0.820672 0.438793
vt 0.681709 0.439953
vt 0.681481 0.412613
vt 0.629394 0.622230
vt 0.602372 0.618070
vt 0.626459 0.461597
vt 0.653481 0.465757
vt 0.896001 0.618654
vt 0.868871 0.622045
vt 0.849182 0.464526
vt 0.876308 0.461110
vt 0.851046 0.646912
vt 0.652746 0.648531
vt 0.639178 0.633197
vt 0.661904 0.459803
vt 0.827246 0.446754
vt 0.675250 0.447995
vt 0.864383 0.631509
vt 0.840804 0.458493
vt 0.661840 0.255520
vt 0.841033 0.254024
vt 0.207855 0.249311
vt 0.208456 0.242393
vt 0.357856 0.244769
vt 0.358204 0.251703
vt 0.358796 0.214470
vt 0.358228 0.221389
vt 0.208828 0.219013
vt 0.208447 0.212079
vt 0.208819 0.188698
vt 0.359168 0.191089
vt 0.205105 0.325236
vt 0.205772 0.318324
vt 0.355143 0.322118
vt 0.355425 0.329055
vt 0.356370 0.291829
vt 0.355737 0.298743
vt 0.206366 0.294948
vt 0.206051 0.288010
vt 0.206645 0.264635
vt 0.356964 0.268453
vt 0.207358 0.048352
vt 0.206877 0.040660
vt 0.366008 0.041536
vt 0.366421 0.048156
vt 0.366440 0.062770
vt 0.366043 0.069391
vt 0.206915 0.070660
vt 0.207376 0.062967
vt 0.366159 0.084005
vt 0.207031 0.085275
vt 0.285656 0.760408
vt 0.312999 0.759837
vt 0.312253 0.783734
vt 0.284391 0.784316
vt 0.281267 0.550284
vt 0.308610 0.549713
vt 0.332514 0.549214
vt 0.336903 0.759337
vt 0.316642 0.993858
vt 0.288780 0.994440
vt 0.257331 0.550784
vt 0.261720 0.760908
vt 0.243450 0.756701
vt 0.245148 0.780552
vt 0.220429 0.780972
vt 0.218263 0.757129
vt 0.272627 0.990284
vt 0.248719 0.990691
vt 0.269056 0.780145
vt 0.224001 0.991111
vt 0.200063 0.991518
vt 0.196492 0.781379
vt 0.214692 0.546990
vt 0.239879 0.546562
vt 0.203633 0.496238
vt 0.204112 0.489310
vt 0.353532 0.489073
vt 0.354000 0.495999
vt 0.353941 0.458762
vt 0.353494 0.465689
vt 0.204076 0.465927
vt 0.203574 0.459001
vt 0.203536 0.435617
vt 0.353904 0.435378
vt 0.205386 0.409144
vt 0.205869 0.402216
vt 0.355288 0.402038
vt 0.355754 0.408965
vt 0.355710 0.371727
vt 0.355260 0.378655
vt 0.205842 0.378833
vt 0.205342 0.371906
vt 0.205315 0.348523
vt 0.355682 0.348344
vt 0.064359 0.500776
vt 0.066237 0.524216
vt 0.042337 0.524881
vt 0.040418 0.500922
vt 0.102745 0.991332
vt 0.079238 0.991985
vt 0.089744 0.523563
vt 0.055338 0.992649
vt 0.031312 0.993317
vt 0.018311 0.525548
vt 0.037543 0.032982
vt 0.061485 0.032835
vt 0.063074 0.009373
vt 0.039168 0.009002
vt 0.139680 0.969546
vt 0.138312 0.991229
vt 0.114402 0.991015
vt 0.115740 0.969800
vt 0.140503 0.011583
vt 0.154612 0.479319
vt 0.132896 0.479974
vt 0.118787 0.012238
vt 0.108995 0.480695
vt 0.094886 0.012959
vt 0.087748 0.481336
vt 0.073639 0.013600
vt 0.110783 0.501877
vt 0.134723 0.501623
vt 0.205369 0.111485
vt 0.205934 0.103805
vt 0.363945 0.104829
vt 0.363459 0.111443
vt 0.363463 0.126058
vt 0.363952 0.132672
vt 0.205942 0.133779
vt 0.205373 0.126100
vt 0.364055 0.147286
vt 0.206044 0.148394
vn 0.0000 -0.0000 1.0000
vn 0.0000 1.0000 0.0000
vn -0.0001 0.0005 -1.0000
vn 0.9933 -0.0000 -0.1158
vn -0.9904 0.0000 -0.1380
vn 0.0000 -0.9983 0.0590
vn 0.0499 -0.9987 -0.0064
vn -0.0000 -0.9983 -0.0589
vn -0.0708 -0.9974 -0.0094
vn 0.0000 -0.1315 0.9913
vn 0.9854 -0.0876 -0.1457
vn 0.0000 0.1315 -0.9913
vn -0.9869 -0.0892 -0.1347
vn 0.0000 -1.0000 -0.0000
vn 0.0000 0.9534 0.3016
vn 0.0000 0.0000 -1.0000
vn 0.0000 0.9535 0.3015
vn 0.4463 0.8944 -0.0288
vn 0.9977 0.0000 -0.0678
vn -0.9981 0.0000 0.0611
vn -0.0928 0.0000 -0.9957
vn 0.9986 -0.0000 0.0521
vn -0.0873 -0.0000 0.9962
vn -0.9957 0.0000 -0.0930
vn -0.9985 0.0000 0.0540
vn 0.1025 0.0000 -0.9947
vn 0.9957 0.0000 -0.0928
vn 0.0965 -0.0000 0.9953
vn -0.1145 0.0000 -0.9934
vn -0.1429 -0.0000 0.9897
vn -0.9951 0.0000 -0.0993
vn 0.1577 -0.0000 0.9875
vn 0.1265 0.0000 -0.9920
vn 0.9951 0.0000 -0.0990
vn -0.4465 0.8942 -0.0314
vn 0.9978 0.0000 0.0668
vn -0.9973 0.0000 -0.0736
usemtl blinn1SG
s 1
f 1/1/1 2/2/1 3/3/1 4/4/1
f 5/5/2 6/6/2 7/7/2 8/8/2
f 9/9/3 10/10/3 11/11/3 12/12/3
f 4/13/4 3/14/4 12/15/4 11/16/4
f 2/17/5 1/18/5 10/19/5 9/20/5
f 13/21/6 1/1/6 4/4/6 14/22/6
f 14/23/7 4/13/7 11/16/7 15/24/7
f 10/10/8 16/25/8 15/26/8 11/11/8
f 1/18/9 13/27/9 16/28/9 10/19/9
f 7/7/10 13/21/10 14/22/10 8/8/10
f 8/8/11 14/23/11 15/24/11 5/5/11
f 16/25/12 6/6/12 5/5/12 15/26/12
f 13/27/13 7/7/13 6/6/13 16/28/13
f 3/29/14 2/30/14 9/9/14 12/12/14
f 17/31/15 18/32/15 19/33/15 20/34/15
f 21/35/14 22/36/14 23/37/14 24/38/14
f 23/37/16 22/36/16 19/33/16 18/32/16
f 21/35/1 24/38/1 17/39/1 20/40/1
f 25/41/17 26/42/17 27/43/17 28/44/17
f 29/45/14 30/46/14 31/47/14 32/48/14
f 31/47/16 30/46/16 27/43/16 26/42/16
f 29/45/1 32/48/1 25/49/1 28/50/1
f 33/51/18 34/52/18 35/53/18 36/54/18
f 37/55/14 38/56/14 39/57/14 40/58/14
f 39/57/19 38/56/19 35/59/19 34/60/19
f 37/55/20 40/58/20 33/51/20 36/54/20
f 41/61/14 42/62/14 43/63/14 44/64/14
f 45/65/21 46/66/21 42/62/21 41/61/21
f 42/62/22 46/66/22 47/67/22 43/68/22
f 47/69/23 48/70/23 44/64/23 43/63/23
f 48/71/24 45/65/24 41/61/24 44/72/24
f 49/73/14 50/74/14 51/75/14 52/76/14
f 53/77/25 54/78/25 50/74/25 49/79/25
f 54/78/26 55/80/26 51/75/26 50/74/26
f 51/75/27 55/80/27 56/81/27 52/82/27
f 56/83/28 53/84/28 49/73/28 52/76/28
f 57/85/17 58/86/17 59/87/17 60/88/17
f 61/89/14 62/90/14 63/91/14 64/92/14
f 63/91/16 62/90/16 59/87/16 58/86/16
f 61/89/1 64/92/1 57/93/1 60/94/1
f 65/95/17 66/96/17 67/97/17 68/98/17
f 69/99/14 70/100/14 71/101/14 72/102/14
f 71/101/16 70/100/16 67/97/16 66/96/16
f 69/99/1 72/102/1 65/103/1 68/104/1
f 73/105/14 74/106/14 75/107/14 76/108/14
f 77/109/29 78/110/29 74/106/29 73/111/29
f 78/110/22 79/112/22 75/107/22 74/106/22
f 79/112/30 80/113/30 76/114/30 75/107/30
f 76/108/31 80/115/31 77/116/31 73/105/31
f 78/117/2 77/116/2 80/115/2 79/118/2
f 81/119/14 82/120/14 83/121/14 84/122/14
f 81/123/32 85/124/32 86/125/32 82/126/32
f 86/125/25 87/127/25 83/128/25 82/126/25
f 87/127/33 88/129/33 84/130/33 83/128/33
f 88/131/34 85/132/34 81/119/34 84/122/34
f 85/132/2 88/131/2 87/127/2 86/125/2
f 89/133/35 90/134/35 91/135/35 92/136/35
f 93/137/14 94/138/14 95/139/14 96/140/14
f 95/139/36 94/138/36 91/141/36 90/142/36
f 93/137/37 96/140/37 89/133/37 92/136/37
