{
	"accessors" : 
	[
		{
			"bufferView" : 2,
			"byteOffset" : 0,
			"componentType" : 5126,
			"count" : 17924,
			"max" : 
			[
				1,
				1,
				1,
				1
			],
			"min" : 
			[
				0.006584956776350737,
				0.006584956776350737,
				0.006584956776350737,
				1
			],
			"name" : "accessor_color_m0-PolyPaper23_-93292",
			"type" : "VEC4"
		},
		{
			"bufferView" : 2,
			"byteOffset" : 286784,
			"componentType" : 5126,
			"count" : 528,
			"max" : 
			[
				1,
				1,
				1,
				1
			],
			"min" : 
			[
				1,
				1,
				1,
				1
			],
			"name" : "accessor_color_m1-PolyGlass24_-93298",
			"type" : "VEC4"
		},
		{
			"bufferView" : 0,
			"byteOffset" : 0,
			"componentType" : 5123,
			"count" : 28386,
			"max" : 
			[
				17923
			],
			"min" : 
			[
				0
			],
			"name" : "accessor_indices_0_m0-PolyPaper23_-93292",
			"type" : "SCALAR"
		},
		{
			"bufferView" : 0,
			"byteOffset" : 56772,
			"componentType" : 5123,
			"count" : 774,
			"max" : 
			[
				527
			],
			"min" : 
			[
				0
			],
			"name" : "accessor_indices_0_m1-PolyGlass24_-93298",
			"type" : "SCALAR"
		},
		{
			"bufferView" : 1,
			"byteOffset" : 215088,
			"componentType" : 5126,
			"count" : 17924,
			"max" : 
			[
				0.9999636,
				1,
				0.9999685
			],
			"min" : 
			[
				-0.9999642,
				-1,
				-0.9981204
			],
			"name" : "accessor_normal_m0-PolyPaper23_-93292",
			"type" : "VEC3"
		},
		{
			"bufferView" : 1,
			"byteOffset" : 436512,
			"componentType" : 5126,
			"count" : 528,
			"max" : 
			[
				0.9764656,
				1,
				0.9770601
			],
			"min" : 
			[
				-0.9764657,
				-1,
				-0.9770603
			],
			"name" : "accessor_normal_m1-PolyGlass24_-93298",
			"type" : "VEC3"
		},
		{
			"bufferView" : 1,
			"byteOffset" : 0,
			"componentType" : 5126,
			"count" : 17924,
			"max" : 
			[
				1.358267,
				1.914073,
				0.5192969
			],
			"min" : 
			[
				-0.4162623,
				-4.932598,
				-1.281809
			],
			"name" : "accessor_position_m0-PolyPaper23_-93292",
			"type" : "VEC3"
		},
		{
			"bufferView" : 1,
			"byteOffset" : 430176,
			"componentType" : 5126,
			"count" : 528,
			"max" : 
			[
				1.339958,
				1.830083,
				0.4900644
			],
			"min" : 
			[
				-0.4000421,
				0.9600826,
				-1.249936
			],
			"name" : "accessor_position_m1-PolyGlass24_-93298",
			"type" : "VEC3"
		}
	],
	"asset" : 
	{
		"copyright" : "Unknown",
		"generator" : "glTF 1-to-2 Upgrader for Google Blocks",
		"version" : "2.0"
	},
	"bufferViews" : 
	[
		{
			"buffer" : 0,
			"byteLength" : 58320,
			"byteOffset" : 0,
			"name" : "ushortBufferView",
			"target" : 34963
		},
		{
			"buffer" : 0,
			"byteLength" : 442848,
			"byteOffset" : 58320,
			"byteStride" : 12,
			"name" : "vec3BufferView",
			"target" : 34962
		},
		{
			"buffer" : 0,
			"byteLength" : 295232,
			"byteOffset" : 501168,
			"byteStride" : 16,
			"name" : "vec4BufferView",
			"target" : 34962
		}
	],
	"buffers" : 
	[
		{
			"byteLength" : 796400,
			"name" : "model",
			"uri" : "Lamp.bin"
		}
	],
	"materials" : 
	[
		{
			"alphaMode" : "OPAQUE",
			"doubleSided" : false,
			"name" : "BlocksPaper",
			"pbrMetallicRoughness" : 
			{
				"baseColorFactor" : 
				[
					1,
					1,
					1,
					1
				],
				"metallicFactor" : 0,
				"roughnessFactor" : 0.6
			}
		},
		{
			"alphaMode" : "BLEND",
			"doubleSided" : false,
			"name" : "BlocksGlass",
			"pbrMetallicRoughness" : 
			{
				"baseColorFactor" : 
				[
					0.2,
					0.2,
					1,
					0.3
				],
				"metallicFactor" : 1,
				"roughnessFactor" : 0.4
			}
		},
		{
			"alphaMode" : "OPAQUE",
			"doubleSided" : true,
			"name" : "BlocksGem",
			"pbrMetallicRoughness" : 
			{
				"baseColorFactor" : 
				[
					1,
					0.4,
					1,
					1
				],
				"metallicFactor" : 0,
				"roughnessFactor" : 0.1
			}
		}
	],
	"meshes" : 
	[
		{
			"name" : "mesh_m0-PolyPaper23_-93292",
			"primitives" : 
			[
				{
					"attributes" : 
					{
						"COLOR_0" : 0,
						"NORMAL" : 4,
						"POSITION" : 6
					},
					"indices" : 2,
					"material" : 0,
					"mode" : 4
				}
			]
		},
		{
			"name" : "mesh_m1-PolyGlass24_-93298",
			"primitives" : 
			[
				{
					"attributes" : 
					{
						"COLOR_0" : 1,
						"NORMAL" : 5,
						"POSITION" : 7
					},
					"indices" : 3,
					"material" : 1,
					"mode" : 4
				}
			]
		}
	],
	"nodes" : 
	[
		{
			"matrix" : 
			[
				1,
				0,
				0,
				0,
				0,
				1,
				0,
				0,
				0,
				0,
				1,
				0,
				0,
				0,
				0,
				1
			],
			"mesh" : 0,
			"name" : "node_MeshObject138858496-PolyPaper23"
		},
		{
			"matrix" : 
			[
				1,
				0,
				0,
				0,
				0,
				1,
				0,
				0,
				0,
				0,
				1,
				0,
				0,
				0,
				0,
				1
			],
			"mesh" : 1,
			"name" : "node_MeshObject710937600-PolyGlass24"
		}
	],
	"scene" : 0,
	"scenes" : 
	[
		{
			"extras" : {},
			"name" : "defaultScene",
			"nodes" : 
			[
				0,
				1
			]
		}
	]
}