{
    "accessors": [
        {
            "bufferView": 0,
            "byteOffset": 0,
            "componentType": 5126,
            "count": 895,
            "max": [
                5.7473041437106076e-08,
                0.6537992358207703,
                0.562366247177124
            ],
            "min": [
                -2.191444158554077,
                -0.6537992358207703,
                -0.562366247177124
            ],
            "name": "accessor_buffer_buffer-0-mesh-0_POSITION_0",
            "type": "VEC3"
        },
        {
            "bufferView": 1,
            "byteOffset": 0,
            "componentType": 5126,
            "count": 895,
            "max": [
                1.0,
                0.99993896484375,
                0.999908447265625
            ],
            "min": [
                -1.0,
                -0.999969482421875,
                -0.999786376953125
            ],
            "name": "accessor_buffer_buffer-0-mesh-0_NORMAL_0",
            "type": "VEC3"
        },
        {
            "bufferView": 3,
            "byteOffset": 0,
            "componentType": 5123,
            "count": 1134,
            "max": [
                894
            ],
            "min": [
                0
            ],
            "name": "accessor_buffer_buffer-0-mesh-0_0",
            "type": "SCALAR"
        },
        {
            "bufferView": 2,
            "byteOffset": 0,
            "componentType": 5126,
            "count": 895,
            "max": [
                2.0108590126037598,
                0.5999879837036133
            ],
            "min": [
                -1.010854959487915,
                -1.0017509460449219
            ],
            "name": "accessor_buffer_buffer-0-mesh-0_TEXCOORD_0_0",
            "type": "VEC2"
        }
    ],
    "asset": {
        "copyright": "",
        "generator": "blendergltf v1.2.0",
        "version": "2.0"
    },
    "bufferViews": [
        {
            "buffer": 0,
            "byteLength": 10740,
            "byteOffset": 0,
            "byteStride": 12,
            "name": "bufferView_buffer_buffer-0-mesh-0_POSITION_0",
            "target": 34962
        },
        {
            "buffer": 0,
            "byteLength": 10740,
            "byteOffset": 10740,
            "byteStride": 12,
            "name": "bufferView_buffer_buffer-0-mesh-0_NORMAL_0",
            "target": 34962
        },
        {
            "buffer": 0,
            "byteLength": 7160,
            "byteOffset": 21480,
            "byteStride": 8,
            "name": "bufferView_buffer_buffer-0-mesh-0_TEXCOORD_0_0",
            "target": 34962
        },
        {
            "buffer": 0,
            "byteLength": 2272,
            "byteOffset": 28640,
            "name": "bufferView_buffer_buffer-0-mesh-0_0",
            "target": 34963
        }
    ],
    "buffers": [
        {
            "byteLength": 30912,
            "name": "buffer_chair",
            "uri": "buffer_chair.bin"
        }
    ],
    "materials": [
        {
            "alphaMode": "OPAQUE",
            "doubleSided": false,
            "emissiveFactor": [
                0.0,
                0.0,
                0.0
            ],
            "name": "blinn2SG",
            "pbrMetallicRoughness": {
                "baseColorFactor": [
                    0.15199999511241913,
                    0.07200000435113907,
                    0.04800000041723251,
                    1.0
                ],
                "metallicFactor": 0.0,
                "roughnessFactor": 1.0
            }
        }
    ],
    "meshes": [
        {
            "name": "buffer-0-mesh-0",
            "primitives": [
                {
                    "attributes": {
                        "NORMAL": 1,
                        "POSITION": 0,
                        "TEXCOORD_0": 3
                    },
                    "indices": 2,
                    "material": 0,
                    "mode": 4
                }
            ]
        }
    ],
    "nodes": [
        {
            "mesh": 0,
            "name": "node-0",
            "rotation": [
                0.7071068286895752,
                5.338508302088485e-08,
                -0.7071067094802856,
                5.338507591545749e-08
            ],
            "scale": [
                1.0000001192092896,
                1.000000238418579,
                1.0000001192092896
            ],
            "translation": [
                0.0,
                0.0,
                0.0
            ]
        },
        {
            "children": [
                0
            ],
            "name": "WoodChair.gltf",
            "rotation": [
                0.0,
                0.0,
                -0.7071068286895752,
                0.7071068286895752
            ],
            "scale": [
                1.0,
                1.0,
                1.0
            ],
            "translation": [
                0.0,
                0.0,
                0.0
            ]
        }
    ],
    "scene": 0,
    "scenes": [
        {
            "extras": {
                "background_color": [
                    0.05087608844041824,
                    0.05087608844041824,
                    0.05087608844041824
                ],
                "frames_per_second": 24
            },
            "name": "Scene",
            "nodes": [
                1
            ]
        }
    ]
}
