{
    "accessors": [
        {
            "bufferView": 0,
            "byteOffset": 0,
            "componentType": 5126,
            "count": 11655,
            "max": [
                0.09012047201395035,
                0.028377359732985497,
                0.25297820568084717
            ],
            "min": [
                -0.09332723915576935,
                -0.028308112174272537,
                0.004038482904434204
            ],
            "name": "accessor_buffer_Box001_POSITION_0",
            "type": "VEC3"
        },
        {
            "bufferView": 3,
            "byteOffset": 0,
            "componentType": 5123,
            "count": 17178,
            "max": [
                11653
            ],
            "min": [
                0
            ],
            "name": "accessor_buffer_Box001_0",
            "type": "SCALAR"
        },
        {
            "bufferView": 4,
            "byteOffset": 0,
            "componentType": 5123,
            "count": 873,
            "max": [
                11654
            ],
            "min": [
                28
            ],
            "name": "accessor_buffer_Box001_1",
            "type": "SCALAR"
        },
        {
            "bufferView": 2,
            "byteOffset": 0,
            "componentType": 5126,
            "count": 11655,
            "max": [
                1.0,
                1.0
            ],
            "min": [
                -0.1785999983549118,
                0.0
            ],
            "name": "accessor_buffer_Box001_TEXCOORD_0_0",
            "type": "VEC2"
        },
        {
            "bufferView": 1,
            "byteOffset": 0,
            "componentType": 5126,
            "count": 11655,
            "max": [
                0.9999998807907104,
                1.0,
                0.9999998807907104
            ],
            "min": [
                -1.0,
                -1.0,
                -0.9999998807907104
            ],
            "name": "accessor_buffer_Box001_NORMAL_0",
            "type": "VEC3"
        }
    ],
    "asset": {
        "copyright": "",
        "generator": "blendergltf v1.2.0",
        "version": "2.0"
    },
    "bufferViews": [
        {
            "buffer": 0,
            "byteLength": 139860,
            "byteOffset": 0,
            "byteStride": 12,
            "name": "bufferView_buffer_Box001_POSITION_0",
            "target": 34962
        },
        {
            "buffer": 0,
            "byteLength": 139860,
            "byteOffset": 139860,
            "byteStride": 12,
            "name": "bufferView_buffer_Box001_NORMAL_0",
            "target": 34962
        },
        {
            "buffer": 0,
            "byteLength": 93240,
            "byteOffset": 279720,
            "byteStride": 8,
            "name": "bufferView_buffer_Box001_TEXCOORD_0_0",
            "target": 34962
        },
        {
            "buffer": 0,
            "byteLength": 34360,
            "byteOffset": 372960,
            "name": "bufferView_buffer_Box001_0",
            "target": 34963
        },
        {
            "buffer": 0,
            "byteLength": 1748,
            "byteOffset": 407320,
            "name": "bufferView_buffer_Box001_1",
            "target": 34963
        }
    ],
    "buffers": [
        {
            "byteLength": 409068,
            "name": "buffer_book",
            "uri": "buffer_book.bin"
        }
    ],
    "materials": [
        {
            "alphaMode": "BLEND",
            "doubleSided": false,
            "emissiveFactor": [
                0.0,
                0.0,
                0.0
            ],
            "name": "02___Default",
            "pbrMetallicRoughness": {
                "baseColorFactor": [
                    0.8863000273704529,
                    0.8863000273704529,
                    0.8863000273704529,
                    1.0
                ],
                "metallicFactor": 0.0,
                "roughnessFactor": 1.0
            }
        },
        {
            "alphaMode": "BLEND",
            "doubleSided": false,
            "emissiveFactor": [
                0.0,
                0.0,
                0.0
            ],
            "name": "_crayfishdiffuse",
            "pbrMetallicRoughness": {
                "baseColorFactor": [
                    0.12160000205039978,
                    0.22349999845027924,
                    1.0,
                    1.0
                ],
                "metallicFactor": 0.0,
                "roughnessFactor": 1.0
            }
        }
    ],
    "meshes": [
        {
            "name": "Box001",
            "primitives": [
                {
                    "attributes": {
                        "NORMAL": 4,
                        "POSITION": 0,
                        "TEXCOORD_0": 3
                    },
                    "indices": 1,
                    "material": 0,
                    "mode": 4
                },
                {
                    "attributes": {
                        "NORMAL": 4,
                        "POSITION": 0,
                        "TEXCOORD_0": 3
                    },
                    "indices": 2,
                    "material": 1,
                    "mode": 4
                }
            ]
        }
    ],
    "nodes": [
        {
            "mesh": 0,
            "name": "Box001",
            "rotation": [
                0.0,
                0.0,
                0.0,
                1.0
            ],
            "scale": [
                1.0,
                1.0,
                1.0
            ],
            "translation": [
                0.0,
                0.0,
                0.0
            ]
        }
    ],
    "scene": 0,
    "scenes": [
        {
            "extras": {
                "background_color": [
                    0.05087608844041824,
                    0.05087608844041824,
                    0.05087608844041824
                ],
                "frames_per_second": 24
            },
            "name": "Scene",
            "nodes": [
                0
            ]
        }
    ]
}
