{
    "accessors": [
        {
            "bufferView": 0,
            "byteOffset": 0,
            "componentType": 5126,
            "count": 438,
            "max": [
                0.39737585186958313,
                0.5316327214241028,
                0.056017447263002396
            ],
            "min": [
                -0.39737585186958313,
                -0.0008566525648348033,
                -0.014782022684812546
            ],
            "name": "accessor_buffer_TV_01_Cube-Mesh_POSITION_0",
            "type": "VEC3"
        },
        {
            "bufferView": 2,
            "byteOffset": 0,
            "componentType": 5123,
            "count": 180,
            "max": [
                435
            ],
            "min": [
                1
            ],
            "name": "accessor_buffer_TV_01_Cube-Mesh_0",
            "type": "SCALAR"
        },
        {
            "bufferView": 3,
            "byteOffset": 0,
            "componentType": 5123,
            "count": 288,
            "max": [
                437
            ],
            "min": [
                0
            ],
            "name": "accessor_buffer_TV_01_Cube-Mesh_1",
            "type": "SCALAR"
        },
        {
            "bufferView": 1,
            "byteOffset": 0,
            "componentType": 5126,
            "count": 438,
            "max": [
                1.0,
                1.0,
                1.0
            ],
            "min": [
                -1.0,
                -1.0,
                -1.0
            ],
            "name": "accessor_buffer_TV_01_Cube-Mesh_NORMAL_0",
            "type": "VEC3"
        }
    ],
    "asset": {
        "copyright": "",
        "generator": "blendergltf v1.2.0",
        "version": "2.0"
    },
    "bufferViews": [
        {
            "buffer": 0,
            "byteLength": 5256,
            "byteOffset": 0,
            "byteStride": 12,
            "name": "bufferView_buffer_TV_01_Cube-Mesh_POSITION_0",
            "target": 34962
        },
        {
            "buffer": 0,
            "byteLength": 5256,
            "byteOffset": 5256,
            "byteStride": 12,
            "name": "bufferView_buffer_TV_01_Cube-Mesh_NORMAL_0",
            "target": 34962
        },
        {
            "buffer": 0,
            "byteLength": 364,
            "byteOffset": 10512,
            "name": "bufferView_buffer_TV_01_Cube-Mesh_0",
            "target": 34963
        },
        {
            "buffer": 0,
            "byteLength": 580,
            "byteOffset": 10876,
            "name": "bufferView_buffer_TV_01_Cube-Mesh_1",
            "target": 34963
        }
    ],
    "buffers": [
        {
            "byteLength": 11456,
            "name": "buffer_television",
            "uri": "buffer_television.bin"
        }
    ],
    "materials": [
        {
            "alphaMode": "OPAQUE",
            "doubleSided": false,
            "emissiveFactor": [
                0.0,
                0.0,
                0.0
            ],
            "name": "1A1A1A",
            "pbrMetallicRoughness": {
                "baseColorFactor": [
                    0.08156879991292953,
                    0.08156879991292953,
                    0.08156879991292953,
                    1.0
                ],
                "metallicFactor": 0.0,
                "roughnessFactor": 1.0
            }
        },
        {
            "alphaMode": "OPAQUE",
            "doubleSided": false,
            "emissiveFactor": [
                0.0,
                0.0,
                0.0
            ],
            "name": "455A64",
            "pbrMetallicRoughness": {
                "baseColorFactor": [
                    0.216470405459404,
                    0.2823528051376343,
                    0.3137255907058716,
                    1.0
                ],
                "metallicFactor": 0.0,
                "roughnessFactor": 1.0
            }
        }
    ],
    "meshes": [
        {
            "name": "TV_01_Cube-Mesh",
            "primitives": [
                {
                    "attributes": {
                        "NORMAL": 3,
                        "POSITION": 0
                    },
                    "indices": 1,
                    "material": 1,
                    "mode": 4
                },
                {
                    "attributes": {
                        "NORMAL": 3,
                        "POSITION": 0
                    },
                    "indices": 2,
                    "material": 0,
                    "mode": 4
                }
            ]
        }
    ],
    "nodes": [
        {
            "mesh": 0,
            "name": "TV_01_Cube",
            "rotation": [
                0.0,
                0.0,
                0.0,
                1.0
            ],
            "scale": [
                1.0,
                1.0,
                1.0
            ],
            "translation": [
                0.0,
                0.0,
                0.0
            ]
        }
    ],
    "scene": 0,
    "scenes": [
        {
            "extras": {
                "background_color": [
                    0.05087608844041824,
                    0.05087608844041824,
                    0.05087608844041824
                ],
                "frames_per_second": 24
            },
            "name": "Scene",
            "nodes": [
                0
            ]
        }
    ]
}
