{
    "accessors": [
        {
            "bufferView": 3,
            "byteOffset": 0,
            "componentType": 5123,
            "count": 2508,
            "max": [
                1757
            ],
            "min": [
                0
            ],
            "name": "accessor_buffer_buffer-0-mesh-0.002_0",
            "type": "SCALAR"
        },
        {
            "bufferView": 4,
            "byteOffset": 0,
            "componentType": 5123,
            "count": 6,
            "max": [
                1102
            ],
            "min": [
                115
            ],
            "name": "accessor_buffer_buffer-0-mesh-0.002_1",
            "type": "SCALAR"
        },
        {
            "bufferView": 5,
            "byteOffset": 0,
            "componentType": 5123,
            "count": 6,
            "max": [
                890
            ],
            "min": [
                130
            ],
            "name": "accessor_buffer_buffer-0-mesh-0.002_2",
            "type": "SCALAR"
        },
        {
            "bufferView": 0,
            "byteOffset": 0,
            "componentType": 5126,
            "count": 1758,
            "max": [
                0.08328476548194885,
                0.2155562788248062,
                0.18222147226333618
            ],
            "min": [
                -0.16287897527217865,
                -0.030335869640111923,
                -0.18029047548770905
            ],
            "name": "accessor_buffer_buffer-0-mesh-0.002_POSITION_0",
            "type": "VEC3"
        },
        {
            "bufferView": 1,
            "byteOffset": 0,
            "componentType": 5126,
            "count": 1758,
            "max": [
                0.999969482421875,
                0.999969482421875,
                0.999969482421875
            ],
            "min": [
                -0.999969482421875,
                -0.999969482421875,
                -0.999969482421875
            ],
            "name": "accessor_buffer_buffer-0-mesh-0.002_NORMAL_0",
            "type": "VEC3"
        },
        {
            "bufferView": 2,
            "byteOffset": 0,
            "componentType": 5126,
            "count": 1758,
            "max": [
                0.875,
                0.0
            ],
            "min": [
                0.125,
                -1.0
            ],
            "name": "accessor_buffer_buffer-0-mesh-0.002_TEXCOORD_0_0",
            "type": "VEC2"
        }
    ],
    "asset": {
        "copyright": "",
        "generator": "blendergltf v1.2.0",
        "version": "2.0"
    },
    "bufferViews": [
        {
            "buffer": 0,
            "byteLength": 21096,
            "byteOffset": 0,
            "byteStride": 12,
            "name": "bufferView_buffer_buffer-0-mesh-0.002_POSITION_0",
            "target": 34962
        },
        {
            "buffer": 0,
            "byteLength": 21096,
            "byteOffset": 21096,
            "byteStride": 12,
            "name": "bufferView_buffer_buffer-0-mesh-0.002_NORMAL_0",
            "target": 34962
        },
        {
            "buffer": 0,
            "byteLength": 14064,
            "byteOffset": 42192,
            "byteStride": 8,
            "name": "bufferView_buffer_buffer-0-mesh-0.002_TEXCOORD_0_0",
            "target": 34962
        },
        {
            "buffer": 0,
            "byteLength": 5020,
            "byteOffset": 56256,
            "name": "bufferView_buffer_buffer-0-mesh-0.002_0",
            "target": 34963
        },
        {
            "buffer": 0,
            "byteLength": 16,
            "byteOffset": 61276,
            "name": "bufferView_buffer_buffer-0-mesh-0.002_1",
            "target": 34963
        },
        {
            "buffer": 0,
            "byteLength": 16,
            "byteOffset": 61292,
            "name": "bufferView_buffer_buffer-0-mesh-0.002_2",
            "target": 34963
        }
    ],
    "buffers": [
        {
            "byteLength": 61308,
            "name": "buffer_Laptop",
            "uri": "buffer_Laptop.bin"
        }
    ],
    "materials": [
        {
            "alphaMode": "OPAQUE",
            "doubleSided": false,
            "emissiveFactor": [
                0.0,
                0.0,
                0.0
            ],
            "name": "Ambulance_01:blinn3SG",
            "pbrMetallicRoughness": {
                "baseColorFactor": [
                    0.00800000037997961,
                    0.00800000037997961,
                    0.00800000037997961,
                    1.0
                ],
                "metallicFactor": 0.0,
                "roughnessFactor": 1.0
            }
        },
        {
            "alphaMode": "OPAQUE",
            "doubleSided": false,
            "emissiveFactor": [
                0.0,
                0.0,
                0.0
            ],
            "name": "Ambulance_01:blinn6SG",
            "pbrMetallicRoughness": {
                "baseColorFactor": [
                    0.2720000147819519,
                    0.2720000147819519,
                    0.2720000147819519,
                    1.0
                ],
                "metallicFactor": 0.0,
                "roughnessFactor": 1.0
            }
        },
        {
            "alphaMode": "OPAQUE",
            "doubleSided": false,
            "emissiveFactor": [
                0.0,
                0.0,
                0.0
            ],
            "name": "blinn11SG",
            "pbrMetallicRoughness": {
                "baseColorFactor": [
                    0.0,
                    0.2640000283718109,
                    0.6240000128746033,
                    1.0
                ],
                "metallicFactor": 0.0,
                "roughnessFactor": 1.0
            }
        }
    ],
    "meshes": [
        {
            "name": "buffer-0-mesh-0.002",
            "primitives": [
                {
                    "attributes": {
                        "NORMAL": 4,
                        "POSITION": 3,
                        "TEXCOORD_0": 5
                    },
                    "indices": 0,
                    "material": 0,
                    "mode": 4
                },
                {
                    "attributes": {
                        "NORMAL": 4,
                        "POSITION": 3,
                        "TEXCOORD_0": 5
                    },
                    "indices": 1,
                    "material": 2,
                    "mode": 4
                },
                {
                    "attributes": {
                        "NORMAL": 4,
                        "POSITION": 3,
                        "TEXCOORD_0": 5
                    },
                    "indices": 2,
                    "material": 1,
                    "mode": 4
                }
            ]
        }
    ],
    "nodes": [
        {
            "mesh": 0,
            "name": "node-0",
            "rotation": [
                0.0,
                0.0,
                0.0,
                1.0
            ],
            "scale": [
                1.0,
                1.0,
                1.0
            ],
            "translation": [
                2.2121129372720816e-09,
                3.259629366425543e-08,
                -0.001183927059173584
            ]
        }
    ],
    "scene": 0,
    "scenes": [
        {
            "extras": {
                "background_color": [
                    0.05087608844041824,
                    0.05087608844041824,
                    0.05087608844041824
                ],
                "frames_per_second": 24
            },
            "name": "Scene",
            "nodes": [
                0
            ]
        }
    ]
}
