{
    "accessors": [
        {
            "bufferView": 3,
            "byteOffset": 0,
            "componentType": 5123,
            "count": 2508,
            "max": [
                1749
            ],
            "min": [
                0
            ],
            "name": "accessor_buffer_buffer-0-mesh-0.002_0",
            "type": "SCALAR"
        },
        {
            "bufferView": 4,
            "byteOffset": 0,
            "componentType": 5123,
            "count": 6,
            "max": [
                451
            ],
            "min": [
                282
            ],
            "name": "accessor_buffer_buffer-0-mesh-0.002_1",
            "type": "SCALAR"
        },
        {
            "bufferView": 5,
            "byteOffset": 0,
            "componentType": 5123,
            "count": 6,
            "max": [
                835
            ],
            "min": [
                546
            ],
            "name": "accessor_buffer_buffer-0-mesh-0.002_2",
            "type": "SCALAR"
        },
        {
            "bufferView": 0,
            "byteOffset": 0,
            "componentType": 5126,
            "count": 1750,
            "max": [
                0.13880792260169983,
                0.4087431728839874,
                0.3037024438381195
            ],
            "min": [
                -0.2714649438858032,
                -0.0010770410299301147,
                -0.3004841208457947
            ],
            "name": "accessor_buffer_buffer-0-mesh-0.002_POSITION_0",
            "type": "VEC3"
        },
        {
            "bufferView": 1,
            "byteOffset": 0,
            "componentType": 5126,
            "count": 1750,
            "max": [
                0.999969482421875,
                0.999969482421875,
                0.999969482421875
            ],
            "min": [
                -0.999969482421875,
                -0.999969482421875,
                -0.999969482421875
            ],
            "name": "accessor_buffer_buffer-0-mesh-0.002_NORMAL_0",
            "type": "VEC3"
        },
        {
            "bufferView": 2,
            "byteOffset": 0,
            "componentType": 5126,
            "count": 1750,
            "max": [
                0.875,
                0.0
            ],
            "min": [
                0.125,
                -1.0
            ],
            "name": "accessor_buffer_buffer-0-mesh-0.002_TEXCOORD_0_0",
            "type": "VEC2"
        }
    ],
    "asset": {
        "copyright": "",
        "generator": "blendergltf v1.2.0",
        "version": "2.0"
    },
    "bufferViews": [
        {
            "buffer": 0,
            "byteLength": 21000,
            "byteOffset": 0,
            "byteStride": 12,
            "name": "bufferView_buffer_buffer-0-mesh-0.002_POSITION_0",
            "target": 34962
        },
        {
            "buffer": 0,
            "byteLength": 21000,
            "byteOffset": 21000,
            "byteStride": 12,
            "name": "bufferView_buffer_buffer-0-mesh-0.002_NORMAL_0",
            "target": 34962
        },
        {
            "buffer": 0,
            "byteLength": 14000,
            "byteOffset": 42000,
            "byteStride": 8,
            "name": "bufferView_buffer_buffer-0-mesh-0.002_TEXCOORD_0_0",
            "target": 34962
        },
        {
            "buffer": 0,
            "byteLength": 5020,
            "byteOffset": 56000,
            "name": "bufferView_buffer_buffer-0-mesh-0.002_0",
            "target": 34963
        },
        {
            "buffer": 0,
            "byteLength": 16,
            "byteOffset": 61020,
            "name": "bufferView_buffer_buffer-0-mesh-0.002_1",
            "target": 34963
        },
        {
            "buffer": 0,
            "byteLength": 16,
            "byteOffset": 61036,
            "name": "bufferView_buffer_buffer-0-mesh-0.002_2",
            "target": 34963
        }
    ],
    "buffers": [
        {
            "byteLength": 61052,
            "name": "buffer_Laptop",
            "uri": "buffer_Laptop.bin"
        }
    ],
    "materials": [
        {
            "alphaMode": "OPAQUE",
            "doubleSided": false,
            "emissiveFactor": [
                0.0,
                0.0,
                0.0
            ],
            "name": "Ambulance_01:blinn3SG",
            "pbrMetallicRoughness": {
                "baseColorFactor": [
                    0.00800000037997961,
                    0.00800000037997961,
                    0.00800000037997961,
                    1.0
                ],
                "metallicFactor": 0.0,
                "roughnessFactor": 1.0
            }
        },
        {
            "alphaMode": "OPAQUE",
            "doubleSided": false,
            "emissiveFactor": [
                0.0,
                0.0,
                0.0
            ],
            "name": "Ambulance_01:blinn6SG",
            "pbrMetallicRoughness": {
                "baseColorFactor": [
                    0.2720000147819519,
                    0.2720000147819519,
                    0.2720000147819519,
                    1.0
                ],
                "metallicFactor": 0.0,
                "roughnessFactor": 1.0
            }
        },
        {
            "alphaMode": "OPAQUE",
            "doubleSided": false,
            "emissiveFactor": [
                0.0,
                0.0,
                0.0
            ],
            "name": "blinn11SG",
            "pbrMetallicRoughness": {
                "baseColorFactor": [
                    0.0,
                    0.2640000283718109,
                    0.6240000128746033,
                    1.0
                ],
                "metallicFactor": 0.0,
                "roughnessFactor": 1.0
            }
        }
    ],
    "meshes": [
        {
            "name": "buffer-0-mesh-0.002",
            "primitives": [
                {
                    "attributes": {
                        "NORMAL": 4,
                        "POSITION": 3,
                        "TEXCOORD_0": 5
                    },
                    "indices": 0,
                    "material": 0,
                    "mode": 4
                },
                {
                    "attributes": {
                        "NORMAL": 4,
                        "POSITION": 3,
                        "TEXCOORD_0": 5
                    },
                    "indices": 1,
                    "material": 2,
                    "mode": 4
                },
                {
                    "attributes": {
                        "NORMAL": 4,
                        "POSITION": 3,
                        "TEXCOORD_0": 5
                    },
                    "indices": 2,
                    "material": 1,
                    "mode": 4
                }
            ]
        }
    ],
    "nodes": [
        {
            "mesh": 0,
            "name": "node-0",
            "rotation": [
                0.0,
                0.0,
                0.0,
                1.0
            ],
            "scale": [
                1.0,
                1.0,
                1.0
            ],
            "translation": [
                0.0,
                0.0,
                0.0
            ]
        }
    ],
    "scene": 0,
    "scenes": [
        {
            "extras": {
                "background_color": [
                    0.05087608844041824,
                    0.05087608844041824,
                    0.05087608844041824
                ],
                "frames_per_second": 24
            },
            "name": "Scene",
            "nodes": [
                0
            ]
        }
    ]
}
