{
    "accessors": [
        {
            "bufferView": 2,
            "byteOffset": 0,
            "componentType": 5126,
            "count": 108532,
            "max": [
                0.5291000008583069,
                1.0
            ],
            "min": [
                0.0,
                -0.6359000205993652
            ],
            "name": "accessor_buffer_buffer-0-mesh-0_TEXCOORD_0_0",
            "type": "VEC2"
        },
        {
            "bufferView": 3,
            "byteOffset": 0,
            "componentType": 5125,
            "count": 384,
            "max": [
                108285
            ],
            "min": [
                192
            ],
            "name": "accessor_buffer_buffer-0-mesh-0_0",
            "type": "SCALAR"
        },
        {
            "bufferView": 1,
            "byteOffset": 0,
            "componentType": 5126,
            "count": 108532,
            "max": [
                1.0,
                1.0,
                1.0
            ],
            "min": [
                -1.0,
                -1.0,
                -1.0
            ],
            "name": "accessor_buffer_buffer-0-mesh-0_NORMAL_0",
            "type": "VEC3"
        },
        {
            "bufferView": 4,
            "byteOffset": 0,
            "componentType": 5125,
            "count": 54720,
            "max": [
                108531
            ],
            "min": [
                2
            ],
            "name": "accessor_buffer_buffer-0-mesh-0_1",
            "type": "SCALAR"
        },
        {
            "bufferView": 5,
            "byteOffset": 0,
            "componentType": 5125,
            "count": 78336,
            "max": [
                108515
            ],
            "min": [
                18
            ],
            "name": "accessor_buffer_buffer-0-mesh-0_2",
            "type": "SCALAR"
        },
        {
            "bufferView": 6,
            "byteOffset": 0,
            "componentType": 5125,
            "count": 397800,
            "max": [
                108530
            ],
            "min": [
                0
            ],
            "name": "accessor_buffer_buffer-0-mesh-0_3",
            "type": "SCALAR"
        },
        {
            "bufferView": 0,
            "byteOffset": 0,
            "componentType": 5126,
            "count": 108532,
            "max": [
                0.6330310106277466,
                2.249850034713745,
                0.6019729971885681
            ],
            "min": [
                -0.6864680051803589,
                0.0,
                -0.6689180135726929
            ],
            "name": "accessor_buffer_buffer-0-mesh-0_POSITION_0",
            "type": "VEC3"
        }
    ],
    "asset": {
        "copyright": "",
        "generator": "blendergltf v1.2.0",
        "version": "2.0"
    },
    "bufferViews": [
        {
            "buffer": 0,
            "byteLength": 1302384,
            "byteOffset": 0,
            "byteStride": 12,
            "name": "bufferView_buffer_buffer-0-mesh-0_POSITION_0",
            "target": 34962
        },
        {
            "buffer": 0,
            "byteLength": 1302384,
            "byteOffset": 1302384,
            "byteStride": 12,
            "name": "bufferView_buffer_buffer-0-mesh-0_NORMAL_0",
            "target": 34962
        },
        {
            "buffer": 0,
            "byteLength": 868256,
            "byteOffset": 2604768,
            "byteStride": 8,
            "name": "bufferView_buffer_buffer-0-mesh-0_TEXCOORD_0_0",
            "target": 34962
        },
        {
            "buffer": 0,
            "byteLength": 1540,
            "byteOffset": 3473024,
            "name": "bufferView_buffer_buffer-0-mesh-0_0",
            "target": 34963
        },
        {
            "buffer": 0,
            "byteLength": 218884,
            "byteOffset": 3474564,
            "name": "bufferView_buffer_buffer-0-mesh-0_1",
            "target": 34963
        },
        {
            "buffer": 0,
            "byteLength": 313348,
            "byteOffset": 3693448,
            "name": "bufferView_buffer_buffer-0-mesh-0_2",
            "target": 34963
        },
        {
            "buffer": 0,
            "byteLength": 1591204,
            "byteOffset": 4006796,
            "name": "bufferView_buffer_buffer-0-mesh-0_3",
            "target": 34963
        }
    ],
    "buffers": [
        {
            "byteLength": 5598000,
            "name": "buffer_cactus",
            "uri": "buffer_cactus.bin"
        }
    ],
    "materials": [
        {
            "alphaMode": "OPAQUE",
            "doubleSided": false,
            "emissiveFactor": [
                0.0,
                0.0,
                0.0
            ],
            "name": "cactus_green",
            "pbrMetallicRoughness": {
                "baseColorFactor": [
                    0.05270400270819664,
                    0.14911840856075287,
                    0.029021600261330605,
                    1.0
                ],
                "metallicFactor": 0.0,
                "roughnessFactor": 1.0
            }
        },
        {
            "alphaMode": "OPAQUE",
            "doubleSided": false,
            "emissiveFactor": [
                0.0,
                0.0,
                0.0
            ],
            "name": "cactus_pot",
            "pbrMetallicRoughness": {
                "baseColorFactor": [
                    0.5120000243186951,
                    0.5120000243186951,
                    0.5120000243186951,
                    1.0
                ],
                "metallicFactor": 0.0,
                "roughnessFactor": 1.0
            }
        },
        {
            "alphaMode": "OPAQUE",
            "doubleSided": false,
            "emissiveFactor": [
                0.0,
                0.0,
                0.0
            ],
            "name": "cactus_thorns",
            "pbrMetallicRoughness": {
                "baseColorFactor": [
                    0.5120000243186951,
                    0.5120000243186951,
                    0.5120000243186951,
                    1.0
                ],
                "metallicFactor": 0.0,
                "roughnessFactor": 1.0
            }
        },
        {
            "alphaMode": "OPAQUE",
            "doubleSided": false,
            "emissiveFactor": [
                0.0,
                0.0,
                0.0
            ],
            "name": "forest-floor-458775_1280",
            "pbrMetallicRoughness": {
                "baseColorFactor": [
                    0.5120000243186951,
                    0.5120000243186951,
                    0.5120000243186951,
                    1.0
                ],
                "metallicFactor": 0.0,
                "roughnessFactor": 1.0
            }
        }
    ],
    "meshes": [
        {
            "name": "buffer-0-mesh-0",
            "primitives": [
                {
                    "attributes": {
                        "NORMAL": 2,
                        "POSITION": 6,
                        "TEXCOORD_0": 0
                    },
                    "indices": 1,
                    "material": 3,
                    "mode": 4
                },
                {
                    "attributes": {
                        "NORMAL": 2,
                        "POSITION": 6,
                        "TEXCOORD_0": 0
                    },
                    "indices": 3,
                    "material": 0,
                    "mode": 4
                },
                {
                    "attributes": {
                        "NORMAL": 2,
                        "POSITION": 6,
                        "TEXCOORD_0": 0
                    },
                    "indices": 4,
                    "material": 1,
                    "mode": 4
                },
                {
                    "attributes": {
                        "NORMAL": 2,
                        "POSITION": 6,
                        "TEXCOORD_0": 0
                    },
                    "indices": 5,
                    "material": 2,
                    "mode": 4
                }
            ]
        }
    ],
    "nodes": [
        {
            "mesh": 0,
            "name": "node-0",
            "rotation": [
                0.0,
                0.0,
                0.0,
                1.0
            ],
            "scale": [
                0.20000000298023224,
                0.20000000298023224,
                0.20000000298023224
            ],
            "translation": [
                0.0,
                0.0,
                0.0
            ]
        }
    ],
    "scene": 0,
    "scenes": [
        {
            "extras": {
                "background_color": [
                    0.05087608844041824,
                    0.05087608844041824,
                    0.05087608844041824
                ],
                "frames_per_second": 24
            },
            "name": "Scene",
            "nodes": [
                0
            ]
        }
    ]
}
