{
    "accessors": [
        {
            "bufferView": 1,
            "byteOffset": 0,
            "componentType": 5126,
            "count": 442,
            "max": [
                0.9835810661315918,
                0.9906918406486511,
                0.99920654296875
            ],
            "min": [
                -0.9835810661315918,
                -0.9906918406486511,
                -0.99920654296875
            ],
            "name": "accessor_buffer_mesh_m0-PolyPaper20_-353594_NORMAL_0",
            "type": "VEC3"
        },
        {
            "bufferView": 2,
            "byteOffset": 0,
            "componentType": 5126,
            "count": 442,
            "max": [
                1.0,
                0.6117647290229797,
                0.250980406999588
            ],
            "min": [
                0.007843137718737125,
                0.007843137718737125,
                0.007843137718737125
            ],
            "name": "accessor_buffer_mesh_m0-PolyPaper20_-353594_COLOR_0_0",
            "type": "VEC3"
        },
        {
            "bufferView": 3,
            "byteOffset": 0,
            "componentType": 5123,
            "count": 612,
            "max": [
                441
            ],
            "min": [
                0
            ],
            "name": "accessor_buffer_mesh_m0-PolyPaper20_-353594_0",
            "type": "SCALAR"
        },
        {
            "bufferView": 0,
            "byteOffset": 0,
            "componentType": 5126,
            "count": 442,
            "max": [
                0.11790507286787033,
                0.11729274690151215,
                0.016664840281009674
            ],
            "min": [
                -0.11770083010196686,
                -0.11671734601259232,
                -0.021777210757136345
            ],
            "name": "accessor_buffer_mesh_m0-PolyPaper20_-353594_POSITION_0",
            "type": "VEC3"
        }
    ],
    "asset": {
        "copyright": "",
        "generator": "blendergltf v1.2.0",
        "version": "2.0"
    },
    "bufferViews": [
        {
            "buffer": 0,
            "byteLength": 5304,
            "byteOffset": 0,
            "byteStride": 12,
            "name": "bufferView_buffer_mesh_m0-PolyPaper20_-353594_POSITION_0",
            "target": 34962
        },
        {
            "buffer": 0,
            "byteLength": 5304,
            "byteOffset": 5304,
            "byteStride": 12,
            "name": "bufferView_buffer_mesh_m0-PolyPaper20_-353594_NORMAL_0",
            "target": 34962
        },
        {
            "buffer": 0,
            "byteLength": 5304,
            "byteOffset": 10608,
            "byteStride": 12,
            "name": "bufferView_buffer_mesh_m0-PolyPaper20_-353594_COLOR_0_0",
            "target": 34962
        },
        {
            "buffer": 0,
            "byteLength": 1228,
            "byteOffset": 15912,
            "name": "bufferView_buffer_mesh_m0-PolyPaper20_-353594_0",
            "target": 34963
        }
    ],
    "buffers": [
        {
            "byteLength": 17140,
            "name": "buffer_clock",
            "uri": "buffer_clock.bin"
        }
    ],
    "materials": [
        {
            "alphaMode": "OPAQUE",
            "doubleSided": false,
            "emissiveFactor": [
                0.0,
                0.0,
                0.0
            ],
            "name": "BlocksPaper_COLOR_0",
            "pbrMetallicRoughness": {
                "baseColorFactor": [
                    0.64000004529953,
                    0.64000004529953,
                    0.64000004529953,
                    1.0
                ],
                "metallicFactor": 0.0,
                "roughnessFactor": 1.0
            }
        }
    ],
    "meshes": [
        {
            "name": "mesh_m0-PolyPaper20_-353594",
            "primitives": [
                {
                    "attributes": {
                        "COLOR_0": 1,
                        "NORMAL": 0,
                        "POSITION": 3
                    },
                    "indices": 2,
                    "material": 0,
                    "mode": 4
                }
            ]
        }
    ],
    "nodes": [
        {
            "mesh": 0,
            "name": "node_MeshObject-1477125248-PolyPaper20",
            "rotation": [
                0.6763723492622375,
                0.001621217466890812,
                0.008807264268398285,
                0.7365054488182068
            ],
            "scale": [
                0.9999999403953552,
                1.0,
                1.0
            ],
            "translation": [
                0.0,
                0.0,
                0.0
            ]
        }
    ],
    "scene": 0,
    "scenes": [
        {
            "extras": {
                "background_color": [
                    0.05087608844041824,
                    0.05087608844041824,
                    0.05087608844041824
                ],
                "frames_per_second": 24
            },
            "name": "Scene",
            "nodes": [
                0
            ]
        }
    ]
}
