{
    "accessors": [
        {
            "bufferView": 1,
            "byteOffset": 0,
            "componentType": 5126,
            "count": 429,
            "max": [
                0.9991455078125,
                0.999237060546875,
                0.999725341796875
            ],
            "min": [
                -0.9991455078125,
                -0.999237060546875,
                -0.999725341796875
            ],
            "name": "accessor_buffer_mesh_m0-PolyPaper20_-353594_NORMAL_0",
            "type": "VEC3"
        },
        {
            "bufferView": 2,
            "byteOffset": 0,
            "componentType": 5126,
            "count": 429,
            "max": [
                1.0,
                0.6117647290229797,
                0.250980406999588
            ],
            "min": [
                0.007843137718737125,
                0.007843137718737125,
                0.007843137718737125
            ],
            "name": "accessor_buffer_mesh_m0-PolyPaper20_-353594_COLOR_0_0",
            "type": "VEC3"
        },
        {
            "bufferView": 3,
            "byteOffset": 0,
            "componentType": 5123,
            "count": 612,
            "max": [
                428
            ],
            "min": [
                0
            ],
            "name": "accessor_buffer_mesh_m0-PolyPaper20_-353594_0",
            "type": "SCALAR"
        },
        {
            "bufferView": 0,
            "byteOffset": 0,
            "componentType": 5126,
            "count": 429,
            "max": [
                0.11389528959989548,
                0.01155311893671751,
                0.11884084343910217
            ],
            "min": [
                -0.11356902867555618,
                -0.016097839921712875,
                -0.11875952780246735
            ],
            "name": "accessor_buffer_mesh_m0-PolyPaper20_-353594_POSITION_0",
            "type": "VEC3"
        }
    ],
    "asset": {
        "copyright": "",
        "generator": "blendergltf v1.2.0",
        "version": "2.0"
    },
    "bufferViews": [
        {
            "buffer": 0,
            "byteLength": 5148,
            "byteOffset": 0,
            "byteStride": 12,
            "name": "bufferView_buffer_mesh_m0-PolyPaper20_-353594_POSITION_0",
            "target": 34962
        },
        {
            "buffer": 0,
            "byteLength": 5148,
            "byteOffset": 5148,
            "byteStride": 12,
            "name": "bufferView_buffer_mesh_m0-PolyPaper20_-353594_NORMAL_0",
            "target": 34962
        },
        {
            "buffer": 0,
            "byteLength": 5148,
            "byteOffset": 10296,
            "byteStride": 12,
            "name": "bufferView_buffer_mesh_m0-PolyPaper20_-353594_COLOR_0_0",
            "target": 34962
        },
        {
            "buffer": 0,
            "byteLength": 1228,
            "byteOffset": 15444,
            "name": "bufferView_buffer_mesh_m0-PolyPaper20_-353594_0",
            "target": 34963
        }
    ],
    "buffers": [
        {
            "byteLength": 16672,
            "name": "buffer_clock",
            "uri": "buffer_clock.bin"
        }
    ],
    "materials": [
        {
            "alphaMode": "OPAQUE",
            "doubleSided": false,
            "emissiveFactor": [
                0.0,
                0.0,
                0.0
            ],
            "name": "BlocksPaper_COLOR_0",
            "pbrMetallicRoughness": {
                "baseColorFactor": [
                    0.64000004529953,
                    0.64000004529953,
                    0.64000004529953,
                    1.0
                ],
                "metallicFactor": 0.0,
                "roughnessFactor": 1.0
            }
        }
    ],
    "meshes": [
        {
            "name": "mesh_m0-PolyPaper20_-353594",
            "primitives": [
                {
                    "attributes": {
                        "COLOR_0": 1,
                        "NORMAL": 0,
                        "POSITION": 3
                    },
                    "indices": 2,
                    "material": 0,
                    "mode": 4
                }
            ]
        }
    ],
    "nodes": [
        {
            "mesh": 0,
            "name": "node_MeshObject-1477125248-PolyPaper20",
            "rotation": [
                0.0,
                0.0,
                0.0,
                1.0
            ],
            "scale": [
                1.0,
                1.0,
                1.0
            ],
            "translation": [
                0.0,
                0.0,
                0.0
            ]
        }
    ],
    "scene": 0,
    "scenes": [
        {
            "extras": {
                "background_color": [
                    0.05087608844041824,
                    0.05087608844041824,
                    0.05087608844041824
                ],
                "frames_per_second": 24
            },
            "name": "Scene",
            "nodes": [
                0
            ]
        }
    ]
}
