{
    "accessors": [
        {
            "bufferView": 0,
            "byteOffset": 0,
            "componentType": 5126,
            "count": 372,
            "max": [
                0.11358284950256348,
                0.11899447441101074,
                0.03317272663116455
            ],
            "min": [
                -0.11525487899780273,
                -0.11794686317443848,
                -0.04004225134849548
            ],
            "name": "accessor_buffer_mesh_m0-PolyPaper20_-353594_POSITION_0",
            "type": "VEC3"
        },
        {
            "bufferView": 1,
            "byteOffset": 0,
            "componentType": 5126,
            "count": 372,
            "max": [
                0.9866023659706116,
                0.9949644207954407,
                0.9950254559516907
            ],
            "min": [
                -0.9866023659706116,
                -0.9949644207954407,
                -0.9777520298957825
            ],
            "name": "accessor_buffer_mesh_m0-PolyPaper20_-353594_NORMAL_0",
            "type": "VEC3"
        },
        {
            "bufferView": 3,
            "byteOffset": 0,
            "componentType": 5123,
            "count": 612,
            "max": [
                371
            ],
            "min": [
                0
            ],
            "name": "accessor_buffer_mesh_m0-PolyPaper20_-353594_0",
            "type": "SCALAR"
        },
        {
            "bufferView": 2,
            "byteOffset": 0,
            "componentType": 5126,
            "count": 372,
            "max": [
                1.0,
                0.6117647290229797,
                0.250980406999588
            ],
            "min": [
                0.007843137718737125,
                0.007843137718737125,
                0.007843137718737125
            ],
            "name": "accessor_buffer_mesh_m0-PolyPaper20_-353594_COLOR_0_0",
            "type": "VEC3"
        }
    ],
    "asset": {
        "copyright": "",
        "generator": "blendergltf v1.2.0",
        "version": "2.0"
    },
    "bufferViews": [
        {
            "buffer": 0,
            "byteLength": 4464,
            "byteOffset": 0,
            "byteStride": 12,
            "name": "bufferView_buffer_mesh_m0-PolyPaper20_-353594_POSITION_0",
            "target": 34962
        },
        {
            "buffer": 0,
            "byteLength": 4464,
            "byteOffset": 4464,
            "byteStride": 12,
            "name": "bufferView_buffer_mesh_m0-PolyPaper20_-353594_NORMAL_0",
            "target": 34962
        },
        {
            "buffer": 0,
            "byteLength": 4464,
            "byteOffset": 8928,
            "byteStride": 12,
            "name": "bufferView_buffer_mesh_m0-PolyPaper20_-353594_COLOR_0_0",
            "target": 34962
        },
        {
            "buffer": 0,
            "byteLength": 1228,
            "byteOffset": 13392,
            "name": "bufferView_buffer_mesh_m0-PolyPaper20_-353594_0",
            "target": 34963
        }
    ],
    "buffers": [
        {
            "byteLength": 14620,
            "name": "buffer_clock",
            "uri": "buffer_clock.bin"
        }
    ],
    "materials": [
        {
            "alphaMode": "OPAQUE",
            "doubleSided": false,
            "emissiveFactor": [
                0.0,
                0.0,
                0.0
            ],
            "name": "BlocksPaper",
            "pbrMetallicRoughness": {
                "baseColorFactor": [
                    0.800000011920929,
                    0.800000011920929,
                    0.800000011920929,
                    1.0
                ],
                "metallicFactor": 0.0,
                "roughnessFactor": 1.0
            }
        }
    ],
    "meshes": [
        {
            "name": "mesh_m0-PolyPaper20_-353594",
            "primitives": [
                {
                    "attributes": {
                        "COLOR_0": 3,
                        "NORMAL": 1,
                        "POSITION": 0
                    },
                    "indices": 2,
                    "material": 0,
                    "mode": 4
                }
            ]
        }
    ],
    "nodes": [
        {
            "mesh": 0,
            "name": "node_MeshObject-1477125248-PolyPaper20",
            "rotation": [
                0.0,
                0.0,
                0.0,
                1.0
            ],
            "scale": [
                1.0,
                1.0,
                1.0
            ],
            "translation": [
                0.0,
                0.0,
                0.0
            ]
        }
    ],
    "scene": 0,
    "scenes": [
        {
            "extras": {
                "background_color": [
                    0.05087608844041824,
                    0.05087608844041824,
                    0.05087608844041824
                ],
                "frames_per_second": 24
            },
            "name": "Scene",
            "nodes": [
                0
            ]
        }
    ]
}
