{
    "accessors": [
        {
            "bufferView": 1,
            "byteOffset": 0,
            "componentType": 5126,
            "count": 1446,
            "max": [
                1.0,
                1.0,
                1.0
            ],
            "min": [
                -1.0,
                -1.0,
                -1.0
            ],
            "name": "accessor_buffer_model_NORMAL_0",
            "type": "VEC3"
        },
        {
            "bufferView": 4,
            "byteOffset": 0,
            "componentType": 5123,
            "count": 1080,
            "max": [
                1444
            ],
            "min": [
                2
            ],
            "name": "accessor_buffer_model_2",
            "type": "SCALAR"
        },
        {
            "bufferView": 3,
            "byteOffset": 0,
            "componentType": 5123,
            "count": 444,
            "max": [
                1445
            ],
            "min": [
                0
            ],
            "name": "accessor_buffer_model_1",
            "type": "SCALAR"
        },
        {
            "bufferView": 2,
            "byteOffset": 0,
            "componentType": 5123,
            "count": 264,
            "max": [
                1441
            ],
            "min": [
                31
            ],
            "name": "accessor_buffer_model_0",
            "type": "SCALAR"
        },
        {
            "bufferView": 5,
            "byteOffset": 0,
            "componentType": 5123,
            "count": 360,
            "max": [
                1436
            ],
            "min": [
                5
            ],
            "name": "accessor_buffer_model_3",
            "type": "SCALAR"
        },
        {
            "bufferView": 0,
            "byteOffset": 0,
            "componentType": 5126,
            "count": 1446,
            "max": [
                0.7821984887123108,
                0.3427600860595703,
                0.33009231090545654
            ],
            "min": [
                -0.7860041260719299,
                -0.3007872998714447,
                -0.18277239799499512
            ],
            "name": "accessor_buffer_model_POSITION_0",
            "type": "VEC3"
        }
    ],
    "asset": {
        "copyright": "",
        "generator": "blendergltf v1.2.0",
        "version": "2.0"
    },
    "bufferViews": [
        {
            "buffer": 0,
            "byteLength": 17352,
            "byteOffset": 0,
            "byteStride": 12,
            "name": "bufferView_buffer_model_POSITION_0",
            "target": 34962
        },
        {
            "buffer": 0,
            "byteLength": 17352,
            "byteOffset": 17352,
            "byteStride": 12,
            "name": "bufferView_buffer_model_NORMAL_0",
            "target": 34962
        },
        {
            "buffer": 0,
            "byteLength": 532,
            "byteOffset": 34704,
            "name": "bufferView_buffer_model_0",
            "target": 34963
        },
        {
            "buffer": 0,
            "byteLength": 892,
            "byteOffset": 35236,
            "name": "bufferView_buffer_model_1",
            "target": 34963
        },
        {
            "buffer": 0,
            "byteLength": 2164,
            "byteOffset": 36128,
            "name": "bufferView_buffer_model_2",
            "target": 34963
        },
        {
            "buffer": 0,
            "byteLength": 724,
            "byteOffset": 38292,
            "name": "bufferView_buffer_model_3",
            "target": 34963
        }
    ],
    "buffers": [
        {
            "byteLength": 39016,
            "name": "buffer_couch",
            "uri": "buffer_couch.bin"
        }
    ],
    "materials": [
        {
            "alphaMode": "OPAQUE",
            "doubleSided": false,
            "emissiveFactor": [
                0.0,
                0.0,
                0.0
            ],
            "name": "mat16",
            "pbrMetallicRoughness": {
                "baseColorFactor": [
                    0.4699999988079071,
                    0.5600000023841858,
                    0.6100000143051147,
                    1.0
                ],
                "metallicFactor": 0.0,
                "roughnessFactor": 1.0
            }
        },
        {
            "alphaMode": "OPAQUE",
            "doubleSided": false,
            "emissiveFactor": [
                0.0,
                0.0,
                0.0
            ],
            "name": "mat17",
            "pbrMetallicRoughness": {
                "baseColorFactor": [
                    0.27000001072883606,
                    0.3499999940395355,
                    0.38999998569488525,
                    1.0
                ],
                "metallicFactor": 0.0,
                "roughnessFactor": 1.0
            }
        },
        {
            "alphaMode": "OPAQUE",
            "doubleSided": false,
            "emissiveFactor": [
                0.0,
                0.0,
                0.0
            ],
            "name": "mat20",
            "pbrMetallicRoughness": {
                "baseColorFactor": [
                    0.4699999988079071,
                    0.33000001311302185,
                    0.2800000011920929,
                    1.0
                ],
                "metallicFactor": 0.0,
                "roughnessFactor": 1.0
            }
        },
        {
            "alphaMode": "OPAQUE",
            "doubleSided": false,
            "emissiveFactor": [
                0.0,
                0.0,
                0.0
            ],
            "name": "mat23",
            "pbrMetallicRoughness": {
                "baseColorFactor": [
                    0.10000000149011612,
                    0.10000000149011612,
                    0.10000000149011612,
                    1.0
                ],
                "metallicFactor": 0.0,
                "roughnessFactor": 1.0
            }
        }
    ],
    "meshes": [
        {
            "name": "model",
            "primitives": [
                {
                    "attributes": {
                        "NORMAL": 0,
                        "POSITION": 5
                    },
                    "indices": 3,
                    "material": 0,
                    "mode": 4
                },
                {
                    "attributes": {
                        "NORMAL": 0,
                        "POSITION": 5
                    },
                    "indices": 2,
                    "material": 3,
                    "mode": 4
                },
                {
                    "attributes": {
                        "NORMAL": 0,
                        "POSITION": 5
                    },
                    "indices": 1,
                    "material": 1,
                    "mode": 4
                },
                {
                    "attributes": {
                        "NORMAL": 0,
                        "POSITION": 5
                    },
                    "indices": 4,
                    "material": 2,
                    "mode": 4
                }
            ]
        }
    ],
    "nodes": [
        {
            "mesh": 0,
            "name": "model",
            "rotation": [
                -0.7071068286895752,
                0.0,
                0.0,
                0.7071067094802856
            ],
            "scale": [
                1.0,
                1.0,
                1.0
            ],
            "translation": [
                0.0,
                0.0,
                0.0
            ]
        }
    ],
    "scene": 0,
    "scenes": [
        {
            "extras": {
                "background_color": [
                    0.05087608844041824,
                    0.05087608844041824,
                    0.05087608844041824
                ],
                "frames_per_second": 24
            },
            "name": "Scene",
            "nodes": [
                0
            ]
        }
    ]
}
