{
    "accessors": [
        {
            "bufferView": 2,
            "byteOffset": 0,
            "componentType": 5126,
            "count": 261,
            "max": [
                0.65625,
                0.0
            ],
            "min": [
                0.34375,
                -1.0
            ],
            "name": "accessor_buffer_buffer-0-mesh-0.001_TEXCOORD_0_0",
            "type": "VEC2"
        },
        {
            "bufferView": 0,
            "byteOffset": 0,
            "componentType": 5126,
            "count": 261,
            "max": [
                0.06331238895654678,
                0.15785014629364014,
                0.06330998241901398
            ],
            "min": [
                -0.06331238150596619,
                0.0029733229894191027,
                -0.06331481039524078
            ],
            "name": "accessor_buffer_buffer-0-mesh-0.001_POSITION_0",
            "type": "VEC3"
        },
        {
            "bufferView": 1,
            "byteOffset": 0,
            "componentType": 5126,
            "count": 261,
            "max": [
                0.9870601296424866,
                1.0,
                0.9870601296424866
            ],
            "min": [
                -0.9870601296424866,
                -1.0,
                -0.9870601296424866
            ],
            "name": "accessor_buffer_buffer-0-mesh-0.001_NORMAL_0",
            "type": "VEC3"
        },
        {
            "bufferView": 3,
            "byteOffset": 0,
            "componentType": 5123,
            "count": 480,
            "max": [
                260
            ],
            "min": [
                0
            ],
            "name": "accessor_buffer_buffer-0-mesh-0.001_0",
            "type": "SCALAR"
        }
    ],
    "asset": {
        "copyright": "",
        "generator": "blendergltf v1.2.0",
        "version": "2.0"
    },
    "bufferViews": [
        {
            "buffer": 0,
            "byteLength": 3132,
            "byteOffset": 0,
            "byteStride": 12,
            "name": "bufferView_buffer_buffer-0-mesh-0.001_POSITION_0",
            "target": 34962
        },
        {
            "buffer": 0,
            "byteLength": 3132,
            "byteOffset": 3132,
            "byteStride": 12,
            "name": "bufferView_buffer_buffer-0-mesh-0.001_NORMAL_0",
            "target": 34962
        },
        {
            "buffer": 0,
            "byteLength": 2088,
            "byteOffset": 6264,
            "byteStride": 8,
            "name": "bufferView_buffer_buffer-0-mesh-0.001_TEXCOORD_0_0",
            "target": 34962
        },
        {
            "buffer": 0,
            "byteLength": 964,
            "byteOffset": 8352,
            "name": "bufferView_buffer_buffer-0-mesh-0.001_0",
            "target": 34963
        }
    ],
    "buffers": [
        {
            "byteLength": 9316,
            "name": "buffer_Cup",
            "uri": "buffer_Cup.bin"
        }
    ],
    "cameras": [
        {
            "name": "Camera",
            "perspective": {
                "aspectRatio": 1.703595982340029,
                "yfov": 0.5033799409866333,
                "zfar": 100.0,
                "znear": 0.10000000149011612
            },
            "type": "perspective"
        }
    ],
    "materials": [
        {
            "alphaMode": "OPAQUE",
            "doubleSided": false,
            "emissiveFactor": [
                0.0,
                0.0,
                0.0
            ],
            "name": "blinn8SG",
            "pbrMetallicRoughness": {
                "baseColorFactor": [
                    0.6960000395774841,
                    0.09600000083446503,
                    0.23199999332427979,
                    1.0
                ],
                "metallicFactor": 0.0,
                "roughnessFactor": 1.0
            }
        }
    ],
    "meshes": [
        {
            "name": "buffer-0-mesh-0.001",
            "primitives": [
                {
                    "attributes": {
                        "NORMAL": 2,
                        "POSITION": 1,
                        "TEXCOORD_0": 0
                    },
                    "indices": 3,
                    "material": 0,
                    "mode": 4
                }
            ]
        }
    ],
    "nodes": [
        {
            "camera": 0,
            "name": "Camera",
            "rotation": [
                -0.09062843769788742,
                -0.8937962651252747,
                -0.2099730223417282,
                0.38578000664711
            ],
            "scale": [
                1.0,
                1.0,
                1.0
            ],
            "translation": [
                -7.481131553649902,
                5.34366512298584,
                -6.5076398849487305
            ]
        },
        {
            "name": "Lamp",
            "rotation": [
                -0.34203386306762695,
                -0.5232755541801453,
                -0.2841663062572479,
                0.7269423007965088
            ],
            "scale": [
                1.0,
                1.0,
                0.9999999403953552
            ],
            "translation": [
                -4.076245307922363,
                5.903861999511719,
                1.0054539442062378
            ]
        },
        {
            "mesh": 0,
            "name": "node-0.001",
            "rotation": [
                -7.670698323636316e-06,
                0.0,
                0.0,
                1.0
            ],
            "scale": [
                1.0,
                0.9999998211860657,
                0.9999998211860657
            ],
            "translation": [
                0.0,
                0.0,
                0.0
            ]
        }
    ],
    "scene": 0,
    "scenes": [
        {
            "extras": {
                "active_camera": 0,
                "background_color": [
                    0.05087608844041824,
                    0.05087608844041824,
                    0.05087608844041824
                ],
                "frames_per_second": 24
            },
            "name": "Scene",
            "nodes": [
                2,
                1,
                0
            ]
        }
    ]
}
